<svg width="1000" height="112" viewBox="0 0 1000 112" fill="none" xmlns="http://www.w3.org/2000/svg">
<rect width="1000" height="112" fill="#11254A"/>
<g opacity="0.1" clip-path="url(#clip0_4124_6375)">
<path fill-rule="evenodd" clip-rule="evenodd" d="M-24 54.9072L-24 79.1776C-24 83.452 -20.5021 86.95 -16.2276 86.95L8.04271 86.95C13.6856 86.8654 15.8689 92.7389 15.8689 94.8223L15.8689 119.093C15.8689 123.367 19.3668 126.865 23.6412 126.865L47.9193 126.865C52.1937 126.865 55.6917 123.367 55.6917 119.093C55.6917 114.295 55.6763 110.29 61.4575 110.29C67.331 110.29 67.1695 114.303 67.1695 119.093C67.1695 123.367 70.6675 126.865 74.9419 126.865L99.2276 126.865C103.502 126.873 107 123.375 107 119.1L107 94.8223C107 90.5479 103.502 87.0499 99.2276 87.0499L74.9573 87.0499C70.6829 87.0499 67.1849 90.5479 67.1849 94.8223C67.1849 99.6041 67.3464 103.625 61.6113 103.625C55.8454 103.625 55.7532 99.6348 55.707 94.8223C55.6686 90.5479 52.2091 87.0499 47.9347 87.0499L23.9565 87.0499C19.4745 87.0499 15.8381 83.4136 15.8381 78.9316L15.8381 54.9072C15.8228 50.6328 12.3248 47.1349 8.0504 47.1349L-16.22 47.1349C-20.5021 47.1349 -24 50.6328 -24 54.9072Z" fill="white"/>
</g>
<g clip-path="url(#clip1_4124_6375)">
<path opacity="0.1" fill-rule="evenodd" clip-rule="evenodd" d="M904.72 141.4H936.29C941.85 141.4 946.4 136.85 946.4 131.29V99.72C946.29 92.38 953.93 89.54 956.64 89.54H988.21C993.77 89.54 998.32 84.99 998.32 79.43V47.85C998.32 42.29 993.77 37.74 988.21 37.74C981.97 37.74 976.76 37.76 976.76 30.24C976.76 22.6 981.98 22.81 988.21 22.81C993.77 22.81 998.32 18.26 998.32 12.7V-18.89C998.32 -24.45 993.77 -29 988.21 -29H956.64C951.08 -29 946.53 -24.45 946.53 -18.89V12.68C946.53 18.24 951.08 22.79 956.64 22.79C962.86 22.79 968.09 22.58 968.09 30.04C968.09 37.54 962.9 37.66 956.64 37.72C951.08 37.77 946.53 42.27 946.53 47.83V79.02C946.53 84.85 941.8 89.58 935.97 89.58H904.72C899.16 89.58 894.61 94.13 894.61 99.69V131.26C894.61 136.85 899.16 141.4 904.72 141.4Z" fill="#04A0DB"/>
<path opacity="0.1" fill-rule="evenodd" clip-rule="evenodd" d="M926.61 -29C932.17 -29 936.72 -24.45 936.72 -18.89V12.68C936.72 18.24 932.17 22.79 926.61 22.79H895.36C889.53 22.79 884.8 27.52 884.8 33.35V64.54C884.8 70.1 880.25 74.6 874.69 74.65C868.43 74.71 863.24 74.83 863.24 82.33C863.24 89.79 868.47 89.58 874.69 89.58C880.25 89.58 884.8 94.13 884.8 99.69V131.26C884.8 136.82 880.25 141.37 874.69 141.37H843.11C837.55 141.4 833 136.85 833 131.29V99.72C833 94.16 837.55 89.61 843.11 89.61C849.34 89.61 854.56 89.82 854.56 82.18C854.56 74.66 849.35 74.68 843.11 74.68C837.55 74.66 833 70.11 833 64.55V32.98C833 27.42 837.55 22.87 843.11 22.87H874.68C877.39 22.87 885.03 20.04 884.92 12.69V-18.89C884.92 -24.45 889.47 -29 895.03 -29H926.61Z" fill="#04A0DB"/>
<path opacity="0.1" fill-rule="evenodd" clip-rule="evenodd" d="M962.1 99.8799H982.73C985.64 99.8799 988.01 102.26 988.01 105.16V125.79C988.01 128.7 985.63 131.07 982.73 131.07H962.1C959.19 131.07 956.82 128.69 956.82 125.79V105.16C956.81 102.26 959.19 99.8799 962.1 99.8799Z" fill="white"/>
<path opacity="0.1" fill-rule="evenodd" clip-rule="evenodd" d="M848.56 -18.71H869.2C872.11 -18.71 874.48 -16.33 874.48 -13.43V7.20004C874.48 10.11 872.1 12.48 869.2 12.48H848.56C845.65 12.48 843.28 10.1 843.28 7.20004V-13.42C843.28 -16.33 845.66 -18.71 848.56 -18.71Z" fill="white"/>
<path opacity="0.1" fill-rule="evenodd" clip-rule="evenodd" d="M905.33 40.5901H925.96C928.87 40.5901 931.24 42.9701 931.24 45.8701V66.5001C931.24 69.4101 928.86 71.7801 925.96 71.7801H905.33C902.42 71.7801 900.05 69.4001 900.05 66.5001V45.8701C900.05 42.9701 902.43 40.5901 905.33 40.5901Z" fill="white"/>
</g>
<defs>
<clipPath id="clip0_4124_6375">
<rect width="107" height="65" fill="white" transform="translate(0 47)"/>
</clipPath>
<clipPath id="clip1_4124_6375">
<rect width="169" height="112" fill="white" transform="translate(831)"/>
</clipPath>
</defs>
</svg>
