<svg width="60" height="60" viewBox="0 0 60 60" fill="none" xmlns="http://www.w3.org/2000/svg">
<path fill-rule="evenodd" clip-rule="evenodd" d="M30 55C43.8071 55 55 43.8071 55 30C55 16.1929 43.8071 5 30 5C16.1929 5 5 16.1929 5 30C5 43.8071 16.1929 55 30 55ZM39.3112 35.9858C40.2295 36.904 40.2295 38.3929 39.3112 39.3112C38.3929 40.2295 36.904 40.2295 35.9857 39.3112L30.0001 33.3256L24.0144 39.3113C23.0961 40.2296 21.6073 40.2296 20.689 39.3113C19.7707 38.393 19.7707 36.9042 20.689 35.9859L26.6747 30.0001L20.6887 24.0142C19.7704 23.0959 19.7704 21.607 20.6887 20.6887C21.607 19.7704 23.0959 19.7704 24.0142 20.6887L30.0001 26.6747L35.986 20.6888C36.9043 19.7705 38.3931 19.7705 39.3114 20.6888C40.2297 21.6071 40.2297 23.096 39.3114 24.0143L33.3256 30.0001L39.3112 35.9858Z" fill="#EB5757"/>
</svg>
