<svg width="169" height="48" viewBox="0 0 169 48" fill="none" xmlns="http://www.w3.org/2000/svg">
<path fill-rule="evenodd" clip-rule="evenodd" d="M20.2747 44H27.4422C28.7031 44 29.7409 42.93 29.7409 41.63V34.22C29.7118 32.5 31.4479 31.83 32.0589 31.83H39.2264C40.4872 31.83 41.525 30.76 41.525 29.46V22.05C41.525 20.74 40.4969 19.68 39.2264 19.68C37.8104 19.68 36.6271 19.68 36.6271 17.92C36.6271 16.16 37.8104 16.18 39.2264 16.18C40.4872 16.18 41.525 15.11 41.525 13.81V6.37C41.525 5.06 40.4969 4 39.2264 4H32.0589C30.7981 4 29.7603 5.07 29.7603 6.37V13.78C29.7603 15.09 30.7884 16.15 32.0589 16.15C33.4749 16.15 34.6582 16.1 34.6582 17.85C34.6582 19.6 33.4846 19.64 32.0589 19.65C30.7981 19.66 29.7603 20.72 29.7603 22.02V29.34C29.7603 30.71 28.6837 31.82 27.3646 31.82H20.2747C19.0139 31.82 17.9761 32.89 17.9761 34.19V41.6C17.9761 42.91 19.0042 43.97 20.2747 43.97V44ZM25.2406 4C26.5014 4 27.5392 5.07 27.5392 6.37V13.78C27.5392 15.09 26.5111 16.15 25.2406 16.15H18.1507C16.8316 16.15 15.7551 17.26 15.7551 18.63V25.95C15.7551 27.26 14.727 28.31 13.4564 28.32C12.0404 28.33 10.8571 28.36 10.8571 30.12C10.8571 31.88 12.0404 31.82 13.4564 31.82C14.7173 31.82 15.7551 32.89 15.7551 34.19V41.6C15.7551 42.91 14.727 43.97 13.4564 43.97H6.29864C5.03778 43.97 4 42.9 4 41.6V34.19C4 32.88 5.02808 31.82 6.29864 31.82C7.71468 31.82 8.89794 31.87 8.89794 30.07C8.89794 28.27 7.71468 28.31 6.29864 28.31C5.03778 28.31 4 27.24 4 25.94V18.53C4 17.22 5.02808 16.16 6.29864 16.16H13.4661C14.0772 16.16 15.8133 15.5 15.7842 13.77V6.37C15.7842 5.06 16.8122 4 18.0828 4H25.2503H25.2406Z" fill="#0BA1DC"/>
<path fill-rule="evenodd" clip-rule="evenodd" d="M33.2907 34.2502H37.9752C38.6347 34.2502 39.1779 34.8102 39.1779 35.4902V40.3302C39.1779 41.0102 38.6347 41.5702 37.9752 41.5702H33.2907C32.6311 41.5702 32.088 41.0102 32.088 40.3302V35.4902C32.088 34.8102 32.6311 34.2502 33.2907 34.2502Z" fill="white"/>
<path fill-rule="evenodd" clip-rule="evenodd" d="M7.53039 6.41943H12.215C12.8745 6.41943 13.4176 6.97943 13.4176 7.65943V12.4994C13.4176 13.1794 12.8745 13.7394 12.215 13.7394H7.53039C6.87086 13.7394 6.32772 13.1794 6.32772 12.4994V7.65943C6.32772 6.97943 6.87086 6.41943 7.53039 6.41943Z" fill="white"/>
<path fill-rule="evenodd" clip-rule="evenodd" d="M20.4105 20.3403H25.0951C25.7546 20.3403 26.2978 20.9003 26.2978 21.5803V26.4203C26.2978 27.1003 25.7546 27.6603 25.0951 27.6603H20.4105C19.751 27.6603 19.2079 27.1003 19.2079 26.4203V21.5803C19.2079 20.9003 19.751 20.3403 20.4105 20.3403Z" fill="white"/>
<path fill-rule="evenodd" clip-rule="evenodd" d="M59.0829 34C57.9518 34 56.9077 33.7783 55.9603 33.335C55.0129 32.8917 54.2298 32.267 53.6304 31.4408L55.7863 28.7406C56.695 30.0201 57.7294 30.665 58.8992 30.665C60.475 30.665 61.2677 29.6977 61.2677 27.7632V19.4307H55.3802V18.1108C55.3802 17.0428 56.2116 16.1763 57.2364 16.1763H65.1251V27.5416C65.1251 29.6977 64.6127 31.3098 63.5976 32.3879C62.5729 33.466 61.0744 34 59.1022 34H59.0829ZM73.3231 20.0353C75.3146 20.0353 76.8518 20.529 77.9152 21.5264C78.9883 22.5239 79.52 24.0151 79.52 26.0202V33.6977H76.03V32.0252C75.3243 33.2746 74.0192 33.8992 72.105 33.8992C71.1189 33.8992 70.2585 33.728 69.5335 33.3753C68.8084 33.0227 68.2573 32.539 67.8706 31.9244C67.4839 31.3098 67.3003 30.6045 67.3003 29.8186C67.3003 28.5693 67.7546 27.5819 68.6537 26.8665C69.5528 26.1511 70.9449 25.7884 72.8301 25.7884H75.798C75.798 24.9421 75.5466 24.2872 75.0536 23.8237C74.5606 23.3602 73.8162 23.1385 72.8301 23.1385C72.1437 23.1385 71.467 23.2494 70.8096 23.4811C70.1522 23.7028 69.5818 24.0151 69.1274 24.398L67.7836 21.6675C68.4894 21.1537 69.3304 20.7506 70.3069 20.4685C71.2833 20.1864 72.2984 20.0453 73.3328 20.0453L73.3231 20.0353ZM73.0428 31.2695C73.6808 31.2695 74.2512 31.1184 74.7442 30.806C75.2373 30.4937 75.5853 30.0403 75.798 29.4458V28.0655H73.2361C71.7086 28.0655 70.9352 28.5894 70.9352 29.6373C70.9352 30.1411 71.1189 30.534 71.496 30.8262C71.873 31.1184 72.3854 31.2594 73.0428 31.2594V31.2695ZM90.6569 33.0428C90.2896 33.3249 89.8352 33.5365 89.3035 33.6776C88.7718 33.8186 88.2111 33.8892 87.6213 33.8892C86.0939 33.8892 84.9048 33.4761 84.0637 32.66C83.2226 31.8438 82.8069 30.6448 82.8069 29.0529V23.5214H80.8251V20.5189H82.8069V19.1788C82.8069 18.1108 83.6383 17.2443 84.6631 17.2443H86.5386V20.5189H89.7482V23.5214H86.5386V29.0025C86.5386 29.5667 86.6739 30.0101 86.9543 30.3123C87.2346 30.6146 87.631 30.7758 88.1434 30.7758C88.7331 30.7758 89.2358 30.6045 89.6515 30.272L90.6569 33.0227V33.0428ZM104.414 27.0176C104.414 27.0176 104.394 27.4207 104.346 28.0655H94.6109C94.785 28.9018 95.2007 29.5567 95.8581 30.0403C96.5155 30.5239 97.3275 30.7657 98.2943 30.7657C98.9613 30.7657 99.5607 30.665 100.073 30.4534C100.595 30.2418 101.079 29.9194 101.523 29.466L103.505 31.7229C102.297 33.1738 100.518 33.8992 98.1976 33.8992C96.7475 33.8992 95.4617 33.6071 94.3499 33.0126C93.2285 32.4181 92.3681 31.602 91.7687 30.5441C91.1596 29.4962 90.8599 28.2972 90.8599 26.9673C90.8599 25.6373 91.1596 24.4584 91.759 23.4005C92.3584 22.3426 93.1802 21.5164 94.2243 20.9219C95.2683 20.3275 96.4381 20.0353 97.7336 20.0353C99.029 20.0353 100.131 20.3174 101.156 20.8816C102.181 21.4458 102.983 22.262 103.563 23.3199C104.143 24.3778 104.433 25.6071 104.433 27.0076L104.414 27.0176ZM97.7432 22.9874C96.9021 22.9874 96.1868 23.2393 95.6164 23.7431C95.046 24.2469 94.6883 24.932 94.5626 25.7985H100.904C100.779 24.9521 100.431 24.267 99.8507 23.7632C99.2803 23.2494 98.5746 22.9975 97.7432 22.9975V22.9874ZM108.213 15.1285H110.089V33.6977H106.357V17.063C106.357 15.995 107.188 15.1285 108.213 15.1285ZM114.874 20.2368H116.75V33.6977H113.018V22.1713C113.018 21.1033 113.849 20.2368 114.874 20.2368ZM114.884 18.3526C114.197 18.3526 113.637 18.1411 113.211 17.728C112.776 17.3149 112.563 16.7909 112.563 16.1763C112.563 15.5617 112.776 15.0378 113.211 14.6247C113.646 14.2116 114.197 14 114.884 14C115.57 14 116.131 14.2015 116.556 14.6045C116.991 15.0076 117.204 15.5013 117.204 16.1058C117.204 16.7607 116.991 17.2947 116.556 17.7179C116.121 18.1411 115.57 18.3526 114.884 18.3526ZM127.5 20.0353C129.095 20.0353 130.381 20.539 131.367 21.5365C132.343 22.534 132.836 24.0252 132.836 25.9899V33.6977H129.105V26.5945C129.105 25.5264 128.882 24.7305 128.438 24.2065C127.993 23.6826 127.345 23.4207 126.504 23.4207C125.566 23.4207 124.812 23.7229 124.252 24.3375C123.691 24.9421 123.41 25.8489 123.41 27.0479V33.7078H119.679V22.1814C119.679 21.1134 120.51 20.2469 121.535 20.2469H123.246V21.8186C123.739 21.2544 124.358 20.8111 125.093 20.5088C125.827 20.1965 126.63 20.0453 127.509 20.0453L127.5 20.0353ZM148.913 15.1285V33.6977H145.346V32.1461C144.418 33.3149 143.084 33.8992 141.324 33.8992C140.116 33.8992 139.014 33.6171 138.037 33.0529C137.061 32.4887 136.288 31.6725 135.727 30.6247C135.166 29.5768 134.886 28.3577 134.886 26.9673C134.886 25.5768 135.166 24.3678 135.727 23.3098C136.288 22.262 137.051 21.4458 138.037 20.8816C139.014 20.3174 140.116 20.0353 141.324 20.0353C142.968 20.0353 144.254 20.5793 145.172 21.6574V17.063C145.172 15.995 146.003 15.1285 147.028 15.1285H148.913ZM141.982 30.6952C142.919 30.6952 143.702 30.3526 144.331 29.6776C144.95 29.0025 145.269 28.0957 145.269 26.9673C145.269 25.8388 144.959 24.932 144.331 24.2569C143.712 23.5819 142.929 23.2393 141.982 23.2393C141.034 23.2393 140.232 23.5819 139.613 24.2569C138.994 24.932 138.675 25.8388 138.675 26.9673C138.675 28.0957 138.985 29.0025 139.613 29.6776C140.232 30.3526 141.025 30.6952 141.982 30.6952ZM157.943 33.8992C156.589 33.8992 155.371 33.6071 154.298 33.0126C153.225 32.4181 152.384 31.602 151.775 30.5441C151.166 29.4962 150.866 28.2972 150.866 26.9673C150.866 25.6373 151.166 24.4383 151.775 23.3904C152.384 22.3426 153.225 21.5164 154.298 20.9219C155.371 20.3275 156.589 20.0353 157.943 20.0353C159.296 20.0353 160.514 20.3275 161.578 20.9219C162.651 21.5164 163.482 22.3325 164.091 23.3904C164.7 24.4383 165 25.6373 165 26.9673C165 28.2972 164.7 29.4962 164.091 30.5441C163.482 31.5919 162.651 32.4181 161.578 33.0126C160.505 33.6071 159.296 33.8992 157.943 33.8992ZM157.943 30.6952C158.9 30.6952 159.683 30.3526 160.302 29.6776C160.92 29.0025 161.22 28.0957 161.22 26.9673C161.22 25.8388 160.911 24.932 160.302 24.2569C159.683 23.5819 158.9 23.2393 157.943 23.2393C156.986 23.2393 156.193 23.5819 155.574 24.2569C154.955 24.932 154.636 25.8388 154.636 26.9673C154.636 28.0957 154.946 29.0025 155.574 29.6776C156.193 30.3526 156.986 30.6952 157.943 30.6952Z" fill="white"/>
</svg>
