<svg width="141" height="40" viewBox="0 0 141 40" fill="none" xmlns="http://www.w3.org/2000/svg">
<path fill-rule="evenodd" clip-rule="evenodd" d="M17.4442 36H23.3651C24.4067 36 25.264 35.144 25.264 34.104V28.176C25.2399 26.8 26.6741 26.264 27.1789 26.264H33.0998C34.1413 26.264 34.9986 25.408 34.9986 24.368V18.44C34.9986 17.392 34.1493 16.544 33.0998 16.544C31.93 16.544 30.9525 16.544 30.9525 15.136C30.9525 13.728 31.93 13.744 33.0998 13.744C34.1413 13.744 34.9986 12.888 34.9986 11.848V5.896C34.9986 4.848 34.1493 4 33.0998 4H27.1789C26.1373 4 25.28 4.856 25.28 5.896V11.824C25.28 12.872 26.1293 13.72 27.1789 13.72C28.3486 13.72 29.3261 13.68 29.3261 15.08C29.3261 16.48 28.3566 16.512 27.1789 16.52C26.1373 16.528 25.28 17.376 25.28 18.416V24.272C25.28 25.368 24.3907 26.256 23.301 26.256H17.4442C16.4027 26.256 15.5454 27.112 15.5454 28.152V34.08C15.5454 35.128 16.3946 35.976 17.4442 35.976V36ZM21.5464 4C22.588 4 23.4452 4.856 23.4452 5.896V11.824C23.4452 12.872 22.596 13.72 21.5464 13.72H15.6896C14.5999 13.72 13.7106 14.608 13.7106 15.704V21.56C13.7106 22.608 12.8613 23.448 11.8117 23.456C10.642 23.464 9.66452 23.488 9.66452 24.896C9.66452 26.304 10.642 26.256 11.8117 26.256C12.8533 26.256 13.7106 27.112 13.7106 28.152V34.08C13.7106 35.128 12.8613 35.976 11.8117 35.976H5.89886C4.85729 35.976 4 35.12 4 34.08V28.152C4 27.104 4.84928 26.256 5.89886 26.256C7.06861 26.256 8.04608 26.296 8.04608 24.856C8.04608 23.416 7.06861 23.448 5.89886 23.448C4.85729 23.448 4 22.592 4 21.552V15.624C4 14.576 4.84928 13.728 5.89886 13.728H11.8198C12.3245 13.728 13.7587 13.2 13.7346 11.816V5.896C13.7346 4.848 14.5839 4 15.6335 4H21.5544H21.5464Z" fill="#0BA1DC"/>
<path fill-rule="evenodd" clip-rule="evenodd" d="M28.1964 28.2002H32.0662C32.611 28.2002 33.0597 28.6482 33.0597 29.1922V33.0642C33.0597 33.6082 32.611 34.0562 32.0662 34.0562H28.1964C27.6516 34.0562 27.2029 33.6082 27.2029 33.0642V29.1922C27.2029 28.6482 27.6516 28.2002 28.1964 28.2002Z" fill="#343434"/>
<path fill-rule="evenodd" clip-rule="evenodd" d="M6.91638 5.93555H10.7862C11.331 5.93555 11.7797 6.38355 11.7797 6.92755V10.7995C11.7797 11.3435 11.331 11.7915 10.7862 11.7915H6.91638C6.37156 11.7915 5.92288 11.3435 5.92288 10.7995V6.92755C5.92288 6.38355 6.37156 5.93555 6.91638 5.93555Z" fill="#343434"/>
<path fill-rule="evenodd" clip-rule="evenodd" d="M17.5564 17.0723H21.4262C21.971 17.0723 22.4197 17.5203 22.4197 18.0643V21.9363C22.4197 22.4803 21.971 22.9283 21.4262 22.9283H17.5564C17.0116 22.9283 16.5629 22.4803 16.5629 21.9363V18.0643C16.5629 17.5203 17.0116 17.0723 17.5564 17.0723Z" fill="#343434"/>
<path fill-rule="evenodd" clip-rule="evenodd" d="M49.5028 28C48.5684 28 47.7059 27.8227 46.9233 27.468C46.1406 27.1133 45.4938 26.6136 44.9986 25.9526L46.7795 23.7924C47.5302 24.8161 48.3847 25.332 49.351 25.332C50.6528 25.332 51.3076 24.5582 51.3076 23.0106V16.3446H46.4441V15.2887C46.4441 14.4343 47.1309 13.7411 47.9774 13.7411H54.4941V22.8332C54.4941 24.5582 54.0708 25.8479 53.2323 26.7103C52.3858 27.5728 51.1479 28 49.5188 28H49.5028ZM61.2663 16.8282C62.9115 16.8282 64.1812 17.2232 65.0597 18.0212C65.9462 18.8191 66.3854 20.0121 66.3854 21.6161V27.7582H63.5024V26.4202C62.9194 27.4196 61.8413 27.9194 60.2601 27.9194C59.4455 27.9194 58.7347 27.7824 58.1358 27.5003C57.5368 27.2181 57.0816 26.8312 56.7622 26.3395C56.4427 25.8479 56.291 25.2836 56.291 24.6549C56.291 23.6554 56.6663 22.8655 57.409 22.2932C58.1517 21.7209 59.3017 21.4307 60.859 21.4307H63.3108C63.3108 20.7537 63.1031 20.2297 62.6958 19.8589C62.2885 19.4882 61.6736 19.3108 60.859 19.3108C60.292 19.3108 59.733 19.3995 59.1899 19.5849C58.6469 19.7622 58.1757 20.0121 57.8003 20.3184L56.6903 18.134C57.2733 17.7229 57.9681 17.4005 58.7747 17.1748C59.5813 16.9491 60.4198 16.8363 61.2743 16.8363L61.2663 16.8282ZM61.0347 25.8156C61.5618 25.8156 62.033 25.6947 62.4403 25.4448C62.8476 25.195 63.1351 24.8322 63.3108 24.3567V23.2524H61.1944C59.9326 23.2524 59.2937 23.6715 59.2937 24.5098C59.2937 24.9128 59.4455 25.2272 59.7569 25.461C60.0684 25.6947 60.4917 25.8076 61.0347 25.8076V25.8156ZM75.5854 27.2343C75.2819 27.4599 74.9066 27.6292 74.4674 27.7421C74.0281 27.8549 73.5649 27.9113 73.0778 27.9113C71.816 27.9113 70.8337 27.5809 70.1389 26.928C69.4441 26.2751 69.1007 25.3159 69.1007 24.0423V19.6171H67.4635V17.2151H69.1007V16.1431C69.1007 15.2887 69.7875 14.5955 70.634 14.5955H72.1833V17.2151H74.8347V19.6171H72.1833V24.002C72.1833 24.4534 72.2951 24.8081 72.5267 25.0499C72.7583 25.2917 73.0858 25.4207 73.509 25.4207C73.9962 25.4207 74.4115 25.2836 74.7549 25.0176L75.5854 27.2181V27.2343ZM86.9497 22.4141C86.9497 22.4141 86.9337 22.7365 86.8938 23.2524H78.8517C78.9955 23.9214 79.3389 24.4453 79.8819 24.8322C80.425 25.2191 81.0958 25.4126 81.8944 25.4126C82.4455 25.4126 82.9406 25.332 83.3639 25.1627C83.7951 24.9935 84.1944 24.7355 84.5618 24.3728L86.199 26.1783C85.2007 27.339 83.7313 27.9194 81.8146 27.9194C80.6167 27.9194 79.5545 27.6856 78.6361 27.2101C77.7097 26.7345 76.999 26.0816 76.5038 25.2353C76.0007 24.397 75.7531 23.4378 75.7531 22.3738C75.7531 21.3098 76.0007 20.3668 76.4958 19.5204C76.991 18.6741 77.6698 18.0131 78.5323 17.5375C79.3948 17.062 80.3611 16.8282 81.4312 16.8282C82.5014 16.8282 83.4118 17.0539 84.2583 17.5053C85.1049 17.9567 85.7677 18.6096 86.2469 19.4559C86.726 20.3023 86.9656 21.2856 86.9656 22.406L86.9497 22.4141ZM81.4392 19.1899C80.7444 19.1899 80.1535 19.3914 79.6823 19.7945C79.2111 20.1975 78.9156 20.7456 78.8118 21.4388H84.0507C83.9469 20.7617 83.6594 20.2136 83.1802 19.8106C82.709 19.3995 82.126 19.198 81.4392 19.198V19.1899ZM90.0882 12.9028H91.6375V27.7582H88.5549V14.4504C88.5549 13.596 89.2417 12.9028 90.0882 12.9028ZM95.5906 16.9894H97.1399V27.7582H94.0573V18.537C94.0573 17.6826 94.7441 16.9894 95.5906 16.9894ZM95.5986 15.4821C95.0316 15.4821 94.5684 15.3128 94.217 14.9824C93.8576 14.6519 93.6819 14.2327 93.6819 13.7411C93.6819 13.2494 93.8576 12.8302 94.217 12.4997C94.5764 12.1693 95.0316 12 95.5986 12C96.1656 12 96.6288 12.1612 96.9802 12.4836C97.3396 12.806 97.5153 13.201 97.5153 13.6846C97.5153 14.2086 97.3396 14.6358 96.9802 14.9743C96.6208 15.3128 96.1656 15.4821 95.5986 15.4821ZM106.02 16.8282C107.338 16.8282 108.4 17.2312 109.215 18.0292C110.022 18.8272 110.429 20.0202 110.429 21.5919V27.7582H107.346V22.0756C107.346 21.2212 107.162 20.5844 106.795 20.1652C106.428 19.7461 105.893 19.5365 105.198 19.5365C104.423 19.5365 103.8 19.7783 103.337 20.27C102.874 20.7537 102.642 21.4791 102.642 22.4383V27.7662H99.5597V18.5451C99.5597 17.6907 100.247 16.9975 101.093 16.9975H102.507V18.2549C102.914 17.8035 103.425 17.4489 104.032 17.2071C104.639 16.9572 105.302 16.8363 106.028 16.8363L106.02 16.8282ZM123.71 12.9028V27.7582H120.763V26.5169C119.996 27.4519 118.894 27.9194 117.441 27.9194C116.442 27.9194 115.532 27.6937 114.725 27.2423C113.919 26.7909 113.28 26.138 112.817 25.2997C112.353 24.4615 112.122 23.4861 112.122 22.3738C112.122 21.2615 112.353 20.2942 112.817 19.4479C113.28 18.6096 113.911 17.9567 114.725 17.5053C115.532 17.0539 116.442 16.8282 117.441 16.8282C118.798 16.8282 119.86 17.2635 120.619 18.1259V14.4504C120.619 13.596 121.306 12.9028 122.152 12.9028H123.702H123.71ZM117.984 25.3562C118.758 25.3562 119.405 25.0821 119.924 24.5421C120.435 24.002 120.699 23.2766 120.699 22.3738C120.699 21.471 120.443 20.7456 119.924 20.2055C119.413 19.6655 118.766 19.3914 117.984 19.3914C117.201 19.3914 116.538 19.6655 116.027 20.2055C115.516 20.7456 115.252 21.471 115.252 22.3738C115.252 23.2766 115.508 24.002 116.027 24.5421C116.538 25.0821 117.193 25.3562 117.984 25.3562ZM131.169 27.9194C130.051 27.9194 129.044 27.6856 128.158 27.2101C127.272 26.7345 126.577 26.0816 126.074 25.2353C125.57 24.397 125.323 23.4378 125.323 22.3738C125.323 21.3098 125.57 20.3506 126.074 19.5123C126.577 18.6741 127.272 18.0131 128.158 17.5375C129.044 17.062 130.051 16.8282 131.169 16.8282C132.287 16.8282 133.293 17.062 134.172 17.5375C135.058 18.0131 135.745 18.666 136.248 19.5123C136.751 20.3506 136.999 21.3098 136.999 22.3738C136.999 23.4378 136.751 24.397 136.248 25.2353C135.745 26.0736 135.058 26.7345 134.172 27.2101C133.285 27.6856 132.287 27.9194 131.169 27.9194ZM131.169 25.3562C131.959 25.3562 132.606 25.0821 133.117 24.5421C133.628 24.002 133.876 23.2766 133.876 22.3738C133.876 21.471 133.62 20.7456 133.117 20.2055C132.606 19.6655 131.959 19.3914 131.169 19.3914C130.378 19.3914 129.723 19.6655 129.212 20.2055C128.701 20.7456 128.438 21.471 128.438 22.3738C128.438 23.2766 128.693 24.002 129.212 24.5421C129.723 25.0821 130.378 25.3562 131.169 25.3562Z" fill="#343434"/>
</svg>
